#define acc_width 29
#define acc_height 40
static char acc_bits[] = {
  0x30, 0x00, 0x00, 0x00, 0x30, 0x00, 0x00, 0x00, 0x78, 0x00, 0x00, 0x00, 
  0xFC, 0x00, 0x00, 0x00, 0xFE, 0x01, 0x00, 0x00, 0xFE, 0x01, 0x00, 0x00, 
  0xB4, 0x00, 0x00, 0x00, 0x30, 0x00, 0x00, 0x00, 0x30, 0x00, 0x00, 0x00, 
  0x70, 0x00, 0x00, 0x00, 0x30, 0x00, 0x00, 0x00, 0x78, 0x00, 0x00, 0x00, 
  0x38, 0x00, 0x00, 0x00, 0x30, 0x00, 0x00, 0x00, 0x30, 0x00, 0x00, 0x00, 
  0x70, 0x00, 0x00, 0x00, 0x30, 0x00, 0x00, 0x00, 0x78, 0x00, 0x00, 0x00, 
  0x30, 0x00, 0x00, 0x00, 0x30, 0x00, 0x00, 0x00, 0x30, 0x00, 0x00, 0x00, 
  0x70, 0x00, 0x00, 0x00, 0x30, 0x00, 0xC0, 0x00, 0x38, 0x00, 0xE0, 0x03, 
  0x30, 0x00, 0xC0, 0x0F, 0x38, 0x00, 0xE0, 0x0F, 0x70, 0x00, 0xFE, 0x07, 
  0x30, 0xC0, 0xBF, 0x03, 0x30, 0xFC, 0x87, 0x03, 0xB0, 0x7F, 0x80, 0x01, 
  0xF8, 0x0F, 0x00, 0x00, 0xF0, 0x01, 0x00, 0x00, 0xF0, 0x31, 0x00, 0x00, 
  0xC0, 0x3B, 0x00, 0x00, 0x00, 0x3F, 0x00, 0x00, 0x00, 0x3E, 0x00, 0x00, 
  0x00, 0x7F, 0x00, 0x00, 0x00, 0x7F, 0x00, 0x00, 0x00, 0x76, 0x00, 0x00, 
  0x00, 0x00, 0x00, 0x00, };
