#define gyro_icon_width 50
#define gyro_icon_height 50
static char gyro_icon_bits[] = {
  0x00, 0x00, 0x00, 0x00, 0x00, 0x00, 0x00, 0x00, 0x00, 0x00, 0x00, 0x00, 
  0x00, 0x00, 0x00, 0x00, 0x00, 0x00, 0x00, 0x00, 0x00, 0x00, 0x00, 0x00, 
  0x00, 0x00, 0x00, 0x00, 0x00, 0x00, 0x00, 0x00, 0x00, 0x00, 0x00, 0x00, 
  0x00, 0x80, 0x0D, 0x00, 0x00, 0x00, 0x00, 0x00, 0xFC, 0xFF, 0x00, 0x00, 
  0x00, 0x00, 0x00, 0x7E, 0xFA, 0x03, 0x00, 0x00, 0x00, 0x83, 0x0F, 0x80, 
  0x0F, 0x00, 0x00, 0x00, 0xE6, 0x01, 0x00, 0x1E, 0x00, 0x00, 0x00, 0xFC, 
  0x00, 0x00, 0x38, 0x00, 0x00, 0x00, 0x38, 0x00, 0x00, 0xFC, 0x00, 0x00, 
  0x00, 0x3C, 0x00, 0x00, 0xEF, 0x00, 0x00, 0x00, 0xFE, 0x01, 0xC0, 0xE7, 
  0x01, 0x00, 0x00, 0xC6, 0x0F, 0xE0, 0xE1, 0x03, 0x00, 0x00, 0xC7, 0x3F, 
  0x70, 0x60, 0x03, 0x00, 0x00, 0xC3, 0x7F, 0x38, 0x30, 0x07, 0x00, 0x80, 
  0xC3, 0xE7, 0x1F, 0x38, 0x06, 0x00, 0x80, 0x81, 0x8D, 0x0F, 0x18, 0x0E, 
  0x00, 0x80, 0x81, 0x9B, 0x07, 0x1C, 0x0C, 0x00, 0xC0, 0x81, 0xF3, 0x0F, 
  0x0E, 0x0C, 0x00, 0xC0, 0x00, 0xE7, 0x1C, 0x07, 0x1C, 0x00, 0xC0, 0x00, 
  0xFE, 0x38, 0x03, 0x0C, 0x00, 0xC0, 0x00, 0xFE, 0xF1, 0x03, 0x18, 0x00, 
  0xC0, 0x00, 0x1C, 0xE3, 0x01, 0x1C, 0x00, 0xC0, 0x00, 0x3E, 0xE6, 0x01, 
  0x08, 0x00, 0xC0, 0x00, 0x7E, 0xFC, 0x01, 0x18, 0x00, 0xC0, 0x00, 0xE7, 
  0xB8, 0x03, 0x1C, 0x00, 0xC0, 0x80, 0xC3, 0x3D, 0x07, 0x0C, 0x00, 0xC0, 
  0xC1, 0x81, 0x6F, 0x06, 0x0C, 0x00, 0x80, 0xC1, 0x80, 0xCF, 0x0E, 0x0C, 
  0x00, 0x80, 0xE1, 0x80, 0x9F, 0x0F, 0x0E, 0x00, 0x80, 0x73, 0xE0, 0x3D, 
  0x1F, 0x06, 0x00, 0x00, 0x33, 0xF0, 0xF0, 0x0F, 0x07, 0x00, 0x00, 0x3F, 
  0x38, 0xE0, 0x1F, 0x03, 0x00, 0x00, 0x1E, 0x1E, 0x80, 0x9F, 0x03, 0x00, 
  0x00, 0x9C, 0x0F, 0x00, 0xF0, 0x01, 0x00, 0x00, 0xFC, 0x03, 0x00, 0xE0, 
  0x00, 0x00, 0x00, 0xF0, 0x00, 0x00, 0xF0, 0x00, 0x00, 0x00, 0xF0, 0x00, 
  0x00, 0xFC, 0x01, 0x00, 0x00, 0xC0, 0x03, 0x00, 0x1F, 0x03, 0x00, 0x00, 
  0x80, 0x1F, 0xC0, 0x07, 0x02, 0x00, 0x00, 0x00, 0xFE, 0xFF, 0x01, 0x00, 
  0x00, 0x00, 0x00, 0xF0, 0x7F, 0x00, 0x00, 0x00, 0x00, 0x00, 0x00, 0x04, 
  0x00, 0x00, 0x00, 0x00, 0x00, 0x00, 0x00, 0x00, 0x00, 0x00, 0x00, 0x00, 
  0x00, 0x00, 0x00, 0x00, 0x00, 0x00, 0x00, 0x00, 0x00, 0x00, 0x00, 0x00, 
  0x00, 0x00, 0x00, 0x00, 0x00, 0x00, 0x00, 0x00, 0x00, 0x00, 0x00, 0x00, 
  0x00, 0x00, };
