#define mag_icon_width 50
#define mag_icon_height 50
static char mag_icon_bits[] = {
  0x00, 0x00, 0x00, 0x00, 0x00, 0x00, 0x00, 0x00, 0x00, 0x00, 0x00, 0x00, 
  0x00, 0x00, 0x00, 0x00, 0x00, 0x00, 0x00, 0x00, 0x00, 0x00, 0x00, 0x00, 
  0x00, 0x00, 0x00, 0x00, 0x00, 0x00, 0x80, 0x05, 0x00, 0x00, 0x00, 0x00, 
  0x00, 0xF0, 0x1F, 0x00, 0x00, 0x00, 0x00, 0x00, 0xFC, 0xFF, 0x01, 0x00, 
  0x00, 0x00, 0x80, 0x1F, 0xE0, 0x07, 0x00, 0x00, 0x00, 0xC0, 0x03, 0x00, 
  0x0F, 0x00, 0x00, 0x00, 0xE0, 0x00, 0x00, 0x3C, 0x00, 0x00, 0x00, 0x70, 
  0x00, 0x00, 0x70, 0x00, 0x00, 0x00, 0x38, 0x00, 0x00, 0xF0, 0x00, 0x00, 
  0x00, 0x1C, 0x00, 0x00, 0xE0, 0x00, 0x00, 0x00, 0x0E, 0x00, 0x00, 0x88, 
  0x01, 0x00, 0x00, 0x07, 0x00, 0x00, 0x8F, 0x03, 0x00, 0x00, 0x03, 0x00, 
  0xC0, 0x0F, 0x07, 0x00, 0x80, 0x03, 0x00, 0xF8, 0x07, 0x06, 0x00, 0x80, 
  0x01, 0x00, 0x7E, 0x07, 0x06, 0x00, 0x80, 0x01, 0x80, 0x1F, 0x03, 0x0E, 
  0x00, 0xC0, 0x01, 0xE0, 0x03, 0x03, 0x0C, 0x00, 0xC0, 0x00, 0xF0, 0x80, 
  0x03, 0x0C, 0x00, 0xC0, 0x00, 0x30, 0x80, 0x01, 0x0C, 0x00, 0xC0, 0x00, 
  0x38, 0xC7, 0x01, 0x1C, 0x00, 0xE0, 0x00, 0x98, 0xC7, 0x00, 0x18, 0x00, 
  0xC0, 0x00, 0x9C, 0xCF, 0x00, 0x1C, 0x00, 0xE0, 0x00, 0x8C, 0xE7, 0x00, 
  0x08, 0x00, 0xE0, 0x00, 0x0E, 0x61, 0x00, 0x1C, 0x00, 0xC0, 0x00, 0x06, 
  0x70, 0x00, 0x0C, 0x00, 0xC0, 0x00, 0x06, 0x3C, 0x00, 0x0C, 0x00, 0xC0, 
  0x01, 0x87, 0x1F, 0x00, 0x0C, 0x00, 0x80, 0x01, 0xE3, 0x07, 0x00, 0x0E, 
  0x00, 0x80, 0x81, 0xFF, 0x01, 0x00, 0x06, 0x00, 0x00, 0x83, 0x3F, 0x00, 
  0x00, 0x07, 0x00, 0x00, 0xC7, 0x0F, 0x00, 0x00, 0x03, 0x00, 0x00, 0xC6, 
  0x01, 0x00, 0x80, 0x03, 0x00, 0x00, 0x0E, 0x00, 0x00, 0xC0, 0x01, 0x00, 
  0x00, 0x1C, 0x00, 0x00, 0xE0, 0x00, 0x00, 0x00, 0x38, 0x00, 0x00, 0xF0, 
  0x00, 0x00, 0x00, 0x70, 0x00, 0x00, 0x38, 0x00, 0x00, 0x00, 0xE0, 0x01, 
  0x00, 0x1E, 0x00, 0x00, 0x00, 0x80, 0x07, 0x80, 0x0F, 0x00, 0x00, 0x00, 
  0x00, 0x3F, 0xF6, 0x03, 0x00, 0x00, 0x00, 0x00, 0xFC, 0xFF, 0x00, 0x00, 
  0x00, 0x00, 0x00, 0xE0, 0x0F, 0x00, 0x00, 0x00, 0x00, 0x00, 0x00, 0x00, 
  0x00, 0x00, 0x00, 0x00, 0x00, 0x00, 0x00, 0x00, 0x00, 0x00, 0x00, 0x00, 
  0x00, 0x00, 0x00, 0x00, 0x00, 0x00, 0x00, 0x00, 0x00, 0x00, 0x00, 0x00, 
  0x00, 0x00, 0x00, 0x00, 0x00, 0x00, 0x00, 0x00, 0x00, 0x00, 0x00, 0x00, 
  0x00, 0x00, };
